<?xml version="1.0" encoding="utf-8"?>
<!-- Generator: Adobe Illustrator 28.1.0, SVG Export Plug-In . SVG Version: 6.00 Build 0)  -->
<svg version="1.1" id="Layer_1" xmlns="http://www.w3.org/2000/svg" xmlns:xlink="http://www.w3.org/1999/xlink" x="0px" y="0px"
	 viewBox="0 0 200 200" style="enable-background:new 0 0 200 200;" xml:space="preserve">
<style type="text/css">
	.st0{fill:#FFFFFF;filter:url(#Adobe_OpacityMaskFilter);}
	.st1{fill:none;stroke:#000000;stroke-width:11.67;stroke-miterlimit:10;}
	.st2{fill:none;stroke:#000000;stroke-width:1.17;}
	.st3{mask:url(#cutout-mask_00000034805803072559150450000008180021774700231853_);}
	.st4{fill:#F79F93;}
	.st5{fill:#FBE8C9;}
</style>
<defs>
	<filter id="Adobe_OpacityMaskFilter" filterUnits="userSpaceOnUse" x="20" y="20" width="160" height="160">
		<feColorMatrix  type="matrix" values="1 0 0 0 0  0 1 0 0 0  0 0 1 0 0  0 0 0 1 0"/>
	</filter>
</defs>
<mask maskUnits="userSpaceOnUse" x="20" y="20" width="160" height="160" id="cutout-mask_00000034805803072559150450000008180021774700231853_">
	<rect class="st0" width="200" height="200"/>
	<path class="st1" d="M43.4,43.4c-31.2,31.2-31.2,81.9,0,113.1s81.9,31.2,113.1,0"/>
	<path class="st1" d="M100,20c-44.2,0-80,35.8-80,80s35.8,80,80,80"/>
	<path class="st1" d="M156.6,43.4c-31.2-31.2-81.9-31.2-113.1,0s-31.2,81.9,0,113.1"/>
	<path class="st1" d="M180,100c0-44.2-35.8-80-80-80s-80,35.8-80,80"/>
	<path class="st1" d="M57.6,57.6c23.4-23.4,61.4-23.4,84.9,0s23.4,61.4,0,84.9"/>
	<path class="st1" d="M100,40c33.1,0,60,26.9,60,60s-26.9,60-60,60"/>
	<path class="st1" d="M142.4,57.6c23.4,23.4,23.4,61.4,0,84.9s-61.4,23.4-84.9,0"/>
	<path class="st1" d="M160,100c0,33.1-26.9,60-60,60s-60-26.9-60-60"/>
	<line class="st2" x1="100" y1="20" x2="100" y2="180"/>
	<line class="st2" x1="20" y1="100" x2="180" y2="100"/>
	<line class="st2" x1="156.6" y1="43.4" x2="43.4" y2="156.6"/>
	<line class="st2" x1="43.4" y1="43.4" x2="156.6" y2="156.6"/>
	<line class="st2" x1="180" y1="100" x2="20" y2="100"/>
	<line class="st2" x1="100" y1="20" x2="100" y2="180"/>
	<line class="st2" x1="156.6" y1="156.6" x2="43.4" y2="43.4"/>
	<line class="st2" x1="156.6" y1="43.4" x2="43.4" y2="156.6"/>
</mask>
<g id="Layer_1-2" class="st3">
	<circle class="st4" cx="100" cy="100" r="80"/>
	<circle class="st5" cx="100" cy="100" r="49.4"/>
</g>
</svg>
